<svg xmlns="http://www.w3.org/2000/svg" viewBox="0 0 800 1000" width="800" height="1000" role="img">
  <defs>
    <pattern id="h" width="18" height="18" patternUnits="userSpaceOnUse" patternTransform="rotate(45)">
      <line x1="0" y1="0" x2="0" y2="18" stroke="rgba(9,11,50,0.05)" stroke-width="7"/>
    </pattern>
  </defs>
  <rect width="800" height="1000" fill="#e4e8f0"/>
  <rect width="800" height="1000" fill="url(#h)"/>
  <rect x="14" y="14" width="772" height="972" fill="none" stroke="rgba(9,11,50,0.28)" stroke-width="4" stroke-dasharray="16 14"/>
  <path d="M170 380 C 300 300, 380 520, 500 420 S 640 520, 660 430" fill="none" stroke="rgba(9,11,50,0.38)" stroke-width="7"/>
<path d="M170 470 C 320 400, 360 600, 520 500 S 630 590, 660 520" fill="none" stroke="rgba(9,11,50,0.22)" stroke-width="6"/>
<path d="M170 560 C 280 500, 400 680, 540 570 S 640 660, 660 600" fill="none" stroke="rgba(9,11,50,0.22)" stroke-width="6"/>
  <text x="400" y="120" font-family="Outfit, Arial, sans-serif" font-size="30" letter-spacing="6"
        fill="rgba(9,11,50,0.45)" text-anchor="middle">PLATSHÅLLARE</text>
  <text x="400" y="176" font-family="Outfit, Arial, sans-serif" font-size="48" font-weight="700"
        letter-spacing="4" fill="#090b32" text-anchor="middle">FÖRE</text>
  <text x="400" y="882" font-family="Outfit, Arial, sans-serif" font-size="27" fill="rgba(9,11,50,0.62)" text-anchor="middle">Kablarna hänger fritt utan kabelränna</text>
  <text x="400" y="948" font-family="Outfit, Arial, sans-serif" font-size="24"
        fill="rgba(9,11,50,0.40)" text-anchor="middle">4:5 · inget riktigt jobb · ersätts av foto ur bevismappen</text>
</svg>